<svg xmlns="http://www.w3.org/2000/svg" xmlns:xlink="http://www.w3.org/1999/xlink" version="1.1" x="0px" y="0px" viewBox="0 0 100 125" enable-background="new 0 0 100 100" xml:space="preserve"><path fill="#000000" d="M50,95C25.187,95,5,74.812,5,50S25.187,5,50,5c24.812,0,45,20.188,45,45S74.812,95,50,95z M50,5.643  C25.543,5.643,5.646,25.541,5.646,50S25.543,94.357,50,94.357S94.354,74.459,94.354,50S74.457,5.643,50,5.643z"/><rect x="28.057" y="36.463" fill="#000000" width="43.886" height="0.645"/><rect x="28.057" y="49.678" fill="#000000" width="43.886" height="0.645"/><rect x="28.057" y="62.895" fill="#000000" width="43.886" height="0.643"/><text x="0" y="115" fill="#000000" font-size="5px" font-weight="bold" font-family="'Helvetica Neue', Helvetica, Arial-Unicode, Arial, Sans-serif">Created by Mert Güler</text><text x="0" y="120" fill="#000000" font-size="5px" font-weight="bold" font-family="'Helvetica Neue', Helvetica, Arial-Unicode, Arial, Sans-serif">from the Noun Project</text></svg>